# xmcd CD database file
#
# Track frame offsets:
#	150
#	15994
#	42423
#	69026
#	81467
#	98453
#	109088
#	122802
#	134852
#	151395
#	173609
#	201187
#	255870
#	277168
#
# Disc length: 4010 seconds
#
# Revision: 0
# Processed by: cddbd v1.5.2PL0 Copyright (c) Steve Scherf et al.
# Submitted via: CDex 1.51
#
DISCID=b80fa80e
DTITLE=Lionel Hampton - Jazz Giants - CD3
DYEAR=2006
DGENRE=Jazz
TTITLE0=Jeepers Creepers
TTITLE1=Hello Dolly
TTITLE2=I Can't Give You Anything But Love
TTITLE3=I Loves You Porgy
TTITLE4=I Who Have Nothing
TTITLE5=Ain't No Sunshine
TTITLE6=Little Girl Blue
TTITLE7=Prelude To A Kiss
TTITLE8=After You've Gone
TTITLE9=I Found A New Baby
TTITLE10=Stompin At The Savoy
TTITLE11=Flying Home
TTITLE12=Close To You
TTITLE13=This Could Be The Start Of Something New
EXTD=YEAR: 2006
EXTT0=
EXTT1=
EXTT2=
EXTT3=
EXTT4=
EXTT5=
EXTT6=
EXTT7=
EXTT8=
EXTT9=
EXTT10=
EXTT11=
EXTT12=
EXTT13=
PLAYORDER=
